<svg id="Layer_1" enable-background="new 0 0 512 512" viewBox="0 0 512 512" xmlns="http://www.w3.org/2000/svg" xmlns:xlink="http://www.w3.org/1999/xlink"><linearGradient id="SVGID_1_" gradientUnits="userSpaceOnUse" x1="0" x2="512" y1="256" y2="256"><stop offset="0" stop-color="#00f2fe"/><stop offset=".0208" stop-color="#03effe"/><stop offset=".2931" stop-color="#24d2fe"/><stop offset=".5538" stop-color="#3cbdfe"/><stop offset=".7956" stop-color="#4ab0fe"/><stop offset="1" stop-color="#4facfe"/></linearGradient><g><path d="m450.735 389.471c-9.236 0-18 2.054-25.862 5.73l-21.834-21.562 12.952-7.002c9.716-5.253 13.335-17.388 8.082-27.105-5.252-9.716-17.388-13.335-27.105-8.082l-115.876 62.646c-1.666.901-3.366 1.705-5.093 2.415v-143.885c8.3-1.842 16.417-4.844 24.116-9.007l86.794-46.924v52.347c0 11.046 8.954 20 20 20s20-8.954 20-20v-85.461c.01-.558-.003-1.115-.039-1.669-.405-6.567-4.024-12.549-9.72-15.944-.597-.356-1.208-.678-1.831-.967l-13.729-7.422 21.42-21.689c8.329 4.244 17.752 6.639 27.723 6.639 33.781 0 61.265-27.483 61.265-61.265s-27.481-61.264-61.263-61.264-61.265 27.483-61.265 61.265c0 9.236 2.054 18 5.73 25.862l-30.258 30.639-64.826-35.047c-27.624-14.935-60.608-14.935-88.232 0l-66.137 35.756-29.857-29.487c4.244-8.329 6.639-17.752 6.639-27.723 0-33.782-27.483-61.265-61.264-61.265s-61.265 27.483-61.265 61.265 27.483 61.265 61.265 61.265c9.236 0 18-2.054 25.862-5.73l21.834 21.562-12.282 6.64c-.622.289-1.233.61-1.83.966-5.697 3.396-9.315 9.377-9.72 15.944-.036.554-.049 1.111-.039 1.669v185.229c0 7.346 4.027 14.1 10.488 17.593l14.83 8.017-21.42 21.689c-8.329-4.244-17.752-6.639-27.723-6.639-33.782.001-61.265 27.484-61.265 61.265s27.483 61.265 61.265 61.265 61.265-27.483 61.265-61.265c0-9.236-2.054-18-5.73-25.862l30.258-30.639 64.826 35.047c13.814 7.468 28.962 11.202 44.116 11.201 15.15-.001 30.306-3.734 44.116-11.201l66.137-35.755 29.857 29.486c-4.244 8.329-6.639 17.752-6.639 27.723 0 33.781 27.483 61.265 61.265 61.265s61.264-27.483 61.264-61.265-27.483-61.264-61.265-61.264zm0-349.471c11.726 0 21.265 9.539 21.265 21.265s-9.539 21.265-21.265 21.265-21.265-9.539-21.265-21.265 9.54-21.265 21.265-21.265zm-410.735 21.265c0-11.726 9.539-21.265 21.265-21.265s21.265 9.539 21.265 21.265-9.54 21.264-21.265 21.264-21.265-9.539-21.265-21.264zm21.265 410.735c-11.726 0-21.265-9.539-21.265-21.265s9.539-21.265 21.265-21.265 21.265 9.539 21.265 21.265-9.54 21.265-21.265 21.265zm169.642-354.095c15.712-8.494 34.474-8.494 50.186 0l83.724 45.264-83.724 45.264c-7.613 4.116-15.942 6.237-24.293 6.365-.265-.01-.532-.016-.8-.016s-.535.005-.8.016c-8.351-.127-16.68-2.249-24.293-6.365l-83.724-45.264zm-105.818 218.982v-140.192l86.794 46.924c7.7 4.163 15.816 7.165 24.116 9.007v143.884c-1.727-.71-3.427-1.514-5.093-2.415zm325.646 135.113c-11.726 0-21.265-9.539-21.265-21.265s9.539-21.265 21.265-21.265 21.265 9.54 21.265 21.265-9.539 21.265-21.265 21.265z" fill="url(#SVGID_1_)"/></g><g/><g/><g/><g/><g/><g/><g/><g/><g/><g/><g/><g/><g/><g/><g/></svg>