<svg height="512" viewBox="0 0 64 64" width="512" xmlns="http://www.w3.org/2000/svg"><g id="Icons"><g><g><path d="m60 20v36c0 2.209-1.791 4-4 4h-48c-2.209 0-4-1.791-4-4v-36c0-2.209 1.791-4 4-4h48c2.209 0 4 1.791 4 4z" fill="#0a5078"/></g><g><path d="m43 16v24l2 4 1.106 2.211c.369.737 1.42.737 1.789 0l1.105-2.211 2-4v-24z" fill="#00325a"/></g><g><path d="m56 21v34c0 .552-.448 1-1 1h-44c-.552 0-1-.448-1-1v-34c0-.552.448-1 1-1h44c.552 0 1 .448 1 1z" fill="#00a0c8"/></g><g><path d="m43 20v20l2 4 1.106 2.211c.369.737 1.42.737 1.789 0l1.105-2.211 2-4v-20z" fill="#0082aa"/></g><g><path d="m20.586 31.414-10.586 10.586v2h26l-12.586-12.586c-.781-.781-2.047-.781-2.828 0z" fill="#d2d2d2"/></g><g><path d="m56 44-16.586-16.586c-.781-.781-2.047-.781-2.828 0l-16.586 16.586z" fill="#f0f0f0"/></g><g><path d="m51 39-8-8v9l2 4h4l2-4z" fill="#d2d2d2"/></g><g><path d="m56 44h-46v11c0 .552.448 1 1 1h44c.552 0 1-.448 1-1z" fill="#fab400"/></g><g><path d="m46.106 46.211c.369.737 1.42.737 1.789 0l1.105-2.211h-4z" fill="#dc9600"/></g><g><g><g><path d="m52 40h-8l2 4h4z" fill="#0a5078"/></g><g><path d="m46 44 1.106 2.211c.369.737 1.42.737 1.789 0l1.105-2.211z" fill="#00325a"/></g><g><path d="m50 4h-4c-1.1 0-2 .9-2 2v34h8v-34c0-1.1-.9-2-2-2z" fill="#fab400"/></g></g><g><path d="m44 28h8v12h-8z" fill="#c80a50"/></g><g><path d="m49 38h-2c-.552 0-1-.448-1-1 0-.552.448-1 1-1h2c.552 0 1 .448 1 1 0 .552-.448 1-1 1z" fill="#fab400"/></g></g><g><circle cx="7" cy="38" fill="#f0f0f0" r="1"/></g></g></g></svg>