<svg id="Layer_1" viewBox="0 0 65 65" xmlns="http://www.w3.org/2000/svg"><path d="m48.995 56.345h8.521l.008-.006v-44.064l-10.286-10.775h-32l.008.007v9.677" fill="#34e7e4"/><path d="m48.995 56.345h8.521l.008-.006v-44.064l-10.286-10.775h-32l.008.007v9.677" fill="#4bcffa"/><path d="m41.039 6.56v11.183h10.777l-10.777-11.188h-33.563v56.945h44.34v-11.784-33.973" fill="#ffd32a"/><path d="m51.816 17.743v33.973 4.629h5.7l.008-.006v-44.064l-10.286-10.775h-15.525v5.055h9.326z" fill="#0fbcf9"/><path d="m51.816 56.345v-4.629-33.973l-10.777-11.188h-9.326v56.945h20.103z" fill="#efc12e"/><g fill="#f5f6fa"><path d="m41.009 23.117h-28.568c-.617 0-1.116-.499-1.116-1.116s.5-1.116 1.116-1.116h28.568c.617 0 1.116.499 1.116 1.116s-.5 1.116-1.116 1.116z"/><path d="m41.009 30.71h-28.568c-.617 0-1.116-.499-1.116-1.116s.5-1.116 1.116-1.116h28.568c.617 0 1.116.499 1.116 1.116s-.5 1.116-1.116 1.116z"/><path d="m41.009 37.701h-28.568c-.617 0-1.116-.499-1.116-1.116s.5-1.116 1.116-1.116h28.568c.617 0 1.116.499 1.116 1.116s-.5 1.116-1.116 1.116z"/><path d="m41.009 45.293h-28.568c-.617 0-1.116-.499-1.116-1.116s.5-1.116 1.116-1.116h28.568c.617 0 1.116.499 1.116 1.116s-.5 1.116-1.116 1.116z"/></g></svg>