<svg id="Capa_1" enable-background="new 0 0 510 510" height="512" viewBox="0 0 510 510" width="512" xmlns="http://www.w3.org/2000/svg" xmlns:xlink="http://www.w3.org/1999/xlink"><linearGradient id="lg1"><stop offset="0" stop-color="#596c76"/><stop offset=".2842" stop-color="#4a5960"/><stop offset=".8747" stop-color="#232627"/><stop offset="1" stop-color="#1a1a1a"/></linearGradient><linearGradient id="SVGID_1_" gradientUnits="userSpaceOnUse" x1="163.946" x2="322.215" xlink:href="#lg1" y1="-6.964" y2="331.763"/><linearGradient id="lg2"><stop offset="0" stop-color="#1a1a1a" stop-opacity="0"/><stop offset=".4256" stop-color="#121212" stop-opacity=".426"/><stop offset="1"/></linearGradient><linearGradient id="SVGID_00000026878240626199789110000014207712968017689765_" gradientUnits="userSpaceOnUse" x1="428.994" x2="484.994" xlink:href="#lg2" y1="176.25" y2="176.25"/><linearGradient id="SVGID_00000011716784683430739310000015157064155502099127_" gradientUnits="userSpaceOnUse" x1="255" x2="255" xlink:href="#lg2" y1="262.25" y2="297.25"/><linearGradient id="SVGID_00000055692608885260582150000012723378107557062567_" gradientUnits="userSpaceOnUse" x1="201.609" x2="303.407" y1="-6.357" y2="283.376"><stop offset="0" stop-color="#d9b1ee"/><stop offset=".1228" stop-color="#dba3e3"/><stop offset=".3507" stop-color="#e381c8"/><stop offset=".6587" stop-color="#ef499b"/><stop offset="1" stop-color="#fe0364"/></linearGradient><linearGradient id="lg3"><stop offset="0" stop-color="#a82975" stop-opacity="0"/><stop offset="1" stop-color="#a82975"/></linearGradient><linearGradient id="SVGID_00000039826232121263924480000002611562480508519357_" gradientUnits="userSpaceOnUse" x1="398.994" x2="461.026" xlink:href="#lg3" y1="145.603" y2="145.603"/><linearGradient id="lg4"><stop offset="0" stop-color="#f9f5f3"/><stop offset="1" stop-color="#efe2dd"/></linearGradient><linearGradient id="SVGID_00000096027739803697886590000017591605629186788241_" gradientUnits="userSpaceOnUse" x1="210.181" x2="290.178" xlink:href="#lg4" y1="230.187" y2="401.395"/><linearGradient id="lg5"><stop offset="0" stop-color="#9e9797" stop-opacity="0"/><stop offset=".3562" stop-color="#9b9494" stop-opacity=".356"/><stop offset=".6285" stop-color="#928b8b" stop-opacity=".629"/><stop offset=".872" stop-color="#827a7a" stop-opacity=".872"/><stop offset="1" stop-color="#766e6e"/></linearGradient><linearGradient id="SVGID_00000127738389048112111490000008940693624437278108_" gradientUnits="userSpaceOnUse" x1="255" x2="255" xlink:href="#lg5" y1="333.026" y2="363.934"/><linearGradient id="SVGID_00000069379680989973653280000017172708257743387044_" gradientUnits="userSpaceOnUse" x1="437" x2="519.152" xlink:href="#lg5" y1="326.108" y2="326.108"/><linearGradient id="SVGID_00000087403302865391487120000003154037257786913927_" gradientUnits="userSpaceOnUse" x1="439.463" x2="389.213" xlink:href="#lg5" y1="326.377" y2="321.377"/><linearGradient id="SVGID_00000059283496270470392180000012453777966834254479_" gradientUnits="userSpaceOnUse" x1="255" x2="255" xlink:href="#lg4" y1="319.917" y2="297.876"/><linearGradient id="SVGID_00000148642123272083789660000009693845094939015844_" gradientUnits="userSpaceOnUse" x1="255" x2="255" xlink:href="#lg5" y1="321.25" y2="289.917"/><linearGradient id="SVGID_00000106847222382853862850000004172637846152645053_" gradientUnits="userSpaceOnUse" x1="261" x2="226.985" xlink:href="#lg5" y1="326.108" y2="326.108"/><linearGradient id="SVGID_00000001657843409432301030000005382546975584678791_" gradientUnits="userSpaceOnUse" x1="213.588" x2="315.409" xlink:href="#lg3" y1="-122.377" y2="188.444"/><linearGradient id="SVGID_00000093896448780312515110000014211284929652667036_" gradientUnits="userSpaceOnUse" x1="285.87" x2="354.57" xlink:href="#lg3" y1="-67.11" y2="142.606"/><linearGradient id="SVGID_00000080914447469171110940000006910488386701847960_" gradientUnits="userSpaceOnUse" x1="216.109" x2="284.809" xlink:href="#lg3" y1="-41.192" y2="168.523"/><linearGradient id="lg6"><stop offset="0" stop-color="#a6e7f0"/><stop offset=".1713" stop-color="#90e2ed"/><stop offset=".5295" stop-color="#56d7e7"/><stop offset="1" stop-color="#02c7dd"/></linearGradient><linearGradient id="SVGID_00000027600403079340460810000009430725652469640850_" gradientUnits="userSpaceOnUse" x1="281.548" x2="373.705" xlink:href="#lg6" y1="111.817" y2="203.973"/><linearGradient id="lg7"><stop offset="0" stop-color="#0199b1" stop-opacity="0"/><stop offset="1" stop-color="#0199b1"/></linearGradient><linearGradient id="SVGID_00000117645404078027453880000002772314420981739708_" gradientTransform="matrix(0 -1 1 0 545.412 -3071.411)" gradientUnits="userSpaceOnUse" x1="-3236.485" x2="-3236.485" xlink:href="#lg7" y1="-131.145" y2="-105.033"/><linearGradient id="lg8"><stop offset="0" stop-color="#fef48b"/><stop offset="1" stop-color="#ffbf51"/></linearGradient><linearGradient id="SVGID_00000027605573255846930760000014653779632025159556_" gradientUnits="userSpaceOnUse" x1="356.093" x2="384.041" xlink:href="#lg8" y1="124.589" y2="152.537"/><linearGradient id="lg9"><stop offset="0" stop-color="#fe9738" stop-opacity="0"/><stop offset="1" stop-color="#fe9738"/></linearGradient><linearGradient id="SVGID_00000095318127970401292280000004768586022497069707_" gradientUnits="userSpaceOnUse" x1="367.972" x2="367.972" xlink:href="#lg9" y1="136.857" y2="173.023"/><linearGradient id="SVGID_00000145756155433401418140000010333916016744679046_" gradientTransform="matrix(.707 -.707 .707 .707 1405.465 -1198.731)" gradientUnits="userSpaceOnUse" x1="-1677.747" x2="-1677.747" xlink:href="#lg9" y1="210.899" y2="248.968"/><linearGradient id="lg10"><stop offset="0" stop-color="#c9f6b0"/><stop offset="1" stop-color="#0bb494"/></linearGradient><linearGradient id="SVGID_00000144331290517095313850000002530636719948187313_" gradientUnits="userSpaceOnUse" x1="254.674" x2="325.269" xlink:href="#lg10" y1="170.453" y2="241.048"/><linearGradient id="SVGID_00000153676136966688290610000017424325123472994209_" gradientUnits="userSpaceOnUse" x1="371.818" x2="408.772" xlink:href="#lg10" y1="197.5" y2="234.453"/><linearGradient id="lg11"><stop offset="0" stop-color="#016a74" stop-opacity="0"/><stop offset="1" stop-color="#016a74"/></linearGradient><linearGradient id="SVGID_00000103238522487804021030000017471571418202991762_" gradientUnits="userSpaceOnUse" x1="334.805" x2="334.805" xlink:href="#lg11" y1="211.368" y2="246.814"/><linearGradient id="SVGID_00000085948111100823140070000005858444682804700828_" gradientUnits="userSpaceOnUse" x1="-.795" x2="11.003" xlink:href="#lg1" y1="238.046" y2="238.046"/><linearGradient id="SVGID_00000029048148852236669860000012407680337179822218_" gradientUnits="userSpaceOnUse" x1="220.984" x2="232.347" xlink:href="#lg1" y1="253.63" y2="253.63"/><linearGradient id="SVGID_00000022551617251344356020000015100267450038740122_" gradientUnits="userSpaceOnUse" x1="2.535" x2="250.961" xlink:href="#lg1" y1="226.741" y2="427.629"/><linearGradient id="SVGID_00000087383646960975976700000001406108744560933762_" gradientUnits="userSpaceOnUse" x1="117.862" x2="117.862" xlink:href="#lg2" y1="501.458" y2="508.334"/><linearGradient id="SVGID_00000055706700028926841610000002630005050347529110_" gradientUnits="userSpaceOnUse" x1="201.431" x2="237.91" xlink:href="#lg2" y1="320" y2="320"/><linearGradient id="SVGID_00000116195361600513394640000017382530055511878291_" gradientUnits="userSpaceOnUse" x1="117.862" x2="117.862" xlink:href="#lg2" y1="127.857" y2="189.683"/><linearGradient id="SVGID_00000052068001344948565340000013669191473712935343_" gradientUnits="userSpaceOnUse" x1="-2.718" x2="203.763" xlink:href="#lg8" y1="250.521" y2="369.497"/><linearGradient id="SVGID_00000080172247899120530470000006516053103836122299_" gradientUnits="userSpaceOnUse" x1="177.324" x2="215.168" xlink:href="#lg9" y1="320" y2="320"/><linearGradient id="SVGID_00000126314436511673201330000016280527069632086158_" gradientUnits="userSpaceOnUse" x1="18.806" x2="120.626" xlink:href="#lg9" y1="45.061" y2="355.882"/><linearGradient id="SVGID_00000131339986490811162480000006938143659514888580_" gradientUnits="userSpaceOnUse" x1="91.087" x2="159.787" xlink:href="#lg9" y1="100.327" y2="310.043"/><linearGradient id="SVGID_00000005956809961911973520000007770630010456019132_" gradientUnits="userSpaceOnUse" x1="21.326" x2="90.026" xlink:href="#lg9" y1="126.245" y2="335.96"/><linearGradient id="SVGID_00000054966096187127232930000004858447173152768418_" gradientUnits="userSpaceOnUse" x1="15.947" x2="147.115" xlink:href="#lg9" y1="247.01" y2="504.975"/><linearGradient id="SVGID_00000096779863528657304980000010803854174449085881_" gradientUnits="userSpaceOnUse" x1="-4.007" x2="113.816" xlink:href="#lg9" y1="280.272" y2="511.992"/><linearGradient id="SVGID_00000136377602442385585630000010023199256611215288_" gradientUnits="userSpaceOnUse" x1="97.064" x2="214.887" xlink:href="#lg9" y1="280.272" y2="511.992"/><linearGradient id="SVGID_00000042728481638412860460000001225371059100311196_" gradientUnits="userSpaceOnUse" x1="-22.691" x2="153.958" xlink:href="#lg9" y1="241.745" y2="589.154"/><linearGradient id="SVGID_00000107589422894180631910000008621274691115724428_" gradientUnits="userSpaceOnUse" x1="7.487" x2="166.311" xlink:href="#lg9" y1="208.253" y2="520.606"/><linearGradient id="SVGID_00000101078908411946524100000010102385453431344002_" gradientUnits="userSpaceOnUse" x1="81.227" x2="144.621" xlink:href="#lg6" y1="276.738" y2="340.131"/><linearGradient id="SVGID_00000067928689086357988830000004057139224764340872_" gradientTransform="matrix(0 -1 1 0 545.412 -3071.411)" gradientUnits="userSpaceOnUse" x1="-3384.784" x2="-3384.784" xlink:href="#lg7" y1="-372.889" y2="-354.927"/><linearGradient id="SVGID_00000149340517097363743130000004765175898004060077_" gradientUnits="userSpaceOnUse" x1="132.505" x2="151.731" xlink:href="#lg8" y1="285.523" y2="304.749"/><linearGradient id="SVGID_00000182490615522542106210000004180679934379515796_" gradientUnits="userSpaceOnUse" x1="140.677" x2="140.677" xlink:href="#lg9" y1="293.963" y2="318.841"/><linearGradient id="SVGID_00000059989065738679128930000012177249604899560078_" gradientTransform="matrix(.707 -.707 .707 .707 1405.465 -1198.731)" gradientUnits="userSpaceOnUse" x1="-1949.645" x2="-1949.645" xlink:href="#lg9" y1="161.232" y2="187.419"/><linearGradient id="SVGID_00000029019665659503022540000006537578279791133081_" gradientUnits="userSpaceOnUse" x1="62.741" x2="111.302" xlink:href="#lg10" y1="317.073" y2="365.634"/><linearGradient id="SVGID_00000039815958469445281920000010901185164540046756_" gradientUnits="userSpaceOnUse" x1="143.323" x2="168.742" xlink:href="#lg10" y1="335.678" y2="361.098"/><linearGradient id="SVGID_00000027579933683205116010000005230823648887770511_" gradientUnits="userSpaceOnUse" x1="117.862" x2="117.862" xlink:href="#lg11" y1="345.218" y2="369.6"/><linearGradient id="SVGID_00000087403834223003697750000010346382336143048326_" gradientUnits="userSpaceOnUse" x1="263.435" x2="362.43" xlink:href="#lg6" y1="266.414" y2="425.406"/><g><g><g><g><path d="m481.994 352.5h-453.988v-322.5c0-16.569 13.431-30 30-30h393.988c16.569 0 30 13.431 30 30z" fill="url(#SVGID_1_)"/><path d="m451.994 0h-183v352.5h213v-322.5c0-16.569-13.431-30-30-30z" fill="url(#SVGID_00000026878240626199789110000014207712968017689765_)"/><path d="m28.006 224.151h453.988v128.349h-453.988z" fill="url(#SVGID_00000011716784683430739310000015157064155502099127_)"/></g><g><path d="m437.994 24.5h-365.988c-9.941 0-18 8.059-18 18v206.206c0 9.941 8.059 18 18 18h365.988c9.941 0 18-8.059 18-18v-206.206c0-9.941-8.059-18-18-18z" fill="url(#SVGID_00000055692608885260582150000012723378107557062567_)"/><path d="m268.994 266.706h169c9.941 0 18-8.059 18-18v-206.206c0-9.941-8.059-18-18-18h-169z" fill="url(#SVGID_00000039826232121263924480000002611562480508519357_)"/></g></g><g><path d="m480 357.795h-450c-16.569 0-30-13.431-30-30v-3.375c0-16.569 13.431-30 30-30h450c16.569 0 30 13.431 30 30v3.375c0 16.569-13.431 30-30 30z" fill="url(#SVGID_00000096027739803697886590000017591605629186788241_)"/><path d="m0 311.795v16c0 16.569 13.431 30 30 30h450c16.569 0 30-13.431 30-30v-16z" fill="url(#SVGID_00000127738389048112111490000008940693624437278108_)"/><path d="m480 294.42h-173.333v63.375h173.333c16.569 0 30-13.431 30-30v-3.375c0-16.568-13.431-30-30-30z" fill="url(#SVGID_00000069379680989973653280000017172708257743387044_)"/><path d="m480 294.42h-88v63.375h88c16.569 0 30-13.431 30-30v-3.375c0-16.568-13.431-30-30-30z" fill="url(#SVGID_00000087403302865391487120000003154037257786913927_)"/></g><path d="m203.333 294.42v9.665c0 8.193 6.642 14.835 14.835 14.835h73.663c8.193 0 14.835-6.642 14.835-14.835v-9.665z" fill="url(#SVGID_00000059283496270470392180000012453777966834254479_)"/><path d="m203.333 294.42v9.665c0 8.193 6.642 14.835 14.835 14.835h73.663c8.193 0 14.835-6.642 14.835-14.835v-9.665z" fill="url(#SVGID_00000148642123272083789660000009693845094939015844_)"/><path d="m383 294.42h-173.333v63.375h173.333c16.569 0 30-13.431 30-30v-3.375c0-16.568-13.431-30-30-30z" fill="url(#SVGID_00000106847222382853862850000004172637846152645053_)"/></g><g><g><g><path d="m292.329 39.799h-46.167c-4.267 0-7.726 3.459-7.726 7.726s3.459 7.726 7.726 7.726h46.167c4.267 0 7.726-3.459 7.726-7.726s-3.459-7.726-7.726-7.726z" fill="url(#SVGID_00000001657843409432301030000005382546975584678791_)"/><path d="m330.922 39.799h-14.999c-4.267 0-7.726 3.459-7.726 7.726s3.459 7.726 7.726 7.726h14.999c4.267 0 7.726-3.459 7.726-7.726.001-4.267-3.458-7.726-7.726-7.726z" fill="url(#SVGID_00000093896448780312515110000014211284929652667036_)"/><path d="m261.161 65.717h-14.999c-4.267 0-7.726 3.459-7.726 7.726s3.459 7.726 7.726 7.726h14.999c4.267 0 7.726-3.459 7.726-7.726s-3.459-7.726-7.726-7.726z" fill="url(#SVGID_00000080914447469171110940000006910488386701847960_)"/></g></g><g><g><path d="m423.959 238.765h-178.307c-9.778 0-17.704-7.926-17.704-17.704v-111.974c0-9.778 7.926-17.704 17.704-17.704h178.307c9.778 0 17.704 7.926 17.704 17.704v111.975c0 9.777-7.926 17.703-17.704 17.703z" fill="url(#SVGID_00000027600403079340460810000009430725652469640850_)"/><g><path d="m367.972 238.765h55.987c9.778 0 17.704-7.926 17.704-17.704v-111.974c0-9.778-7.926-17.704-17.704-17.704h-55.987z" fill="url(#SVGID_00000117645404078027453880000002772314420981739708_)"/></g></g><path d="m252.035 154.411h39.386c6.605 0 11.959-5.354 11.959-11.958 0-6.605-5.354-11.959-11.959-11.959h-39.386c-6.605 0-11.959 5.354-11.959 11.959.001 6.604 5.355 11.958 11.959 11.958z" fill="#fff"/><g><circle cx="367.972" cy="136.468" fill="url(#SVGID_00000027605573255846930760000014653779632025159556_)" r="30.744"/><path d="m337.228 136.468c0 16.979 13.764 30.744 30.744 30.744 16.979 0 30.744-13.765 30.744-30.744 0-3.677-.648-7.203-1.832-10.471h-57.824c-1.184 3.268-1.832 6.794-1.832 10.471z" fill="url(#SVGID_00000095318127970401292280000004768586022497069707_)"/><path d="m346.233 158.207c12.006 12.006 31.472 12.006 43.478 0s12.006-31.472 0-43.478c-2.6-2.6-5.551-4.635-8.7-6.109l-40.888 40.888c1.475 3.148 3.509 6.099 6.11 8.699z" fill="url(#SVGID_00000145756155433401418140000010333916016744679046_)"/></g><path d="m385.124 124.276h26.975c6.605 0 11.959-5.354 11.959-11.958 0-6.605-5.354-11.959-11.959-11.959h-26.975c-6.605 0-11.959 5.354-11.959 11.959.001 6.604 5.355 11.958 11.959 11.958z" fill="#fff"/><path d="m245.652 238.765h133.161l-53.802-81.518c-15.037-22.783-48.466-22.783-63.503 0l-33.56 50.848v12.966c0 9.778 7.926 17.704 17.704 17.704z" fill="url(#SVGID_00000144331290517095313850000002530636719948187313_)"/><path d="m423.959 238.765c9.778 0 17.704-7.926 17.704-17.704v-19.89l-5.094-7.718c-15.037-22.783-48.466-22.783-63.503 0l-29.906 45.312z" fill="url(#SVGID_00000153676136966688290610000017424325123472994209_)"/><path d="m227.948 165.074v55.987c0 9.778 7.926 17.704 17.704 17.704h178.307c9.778 0 17.704-7.926 17.704-17.704v-55.987z" fill="url(#SVGID_00000103238522487804021030000017471571418202991762_)"/></g></g><g><g><path d="m0 214.963v46.167c0 4.267 3.459 7.726 7.726 7.726s7.726-3.459 7.726-7.726v-46.167c0-4.267-3.459-7.726-7.726-7.726s-7.726 3.459-7.726 7.726z" fill="url(#SVGID_00000085948111100823140070000005858444682804700828_)"/><path d="m220.272 246.131v14.999c0 4.267 3.459 7.726 7.726 7.726s7.726-3.459 7.726-7.726v-14.999c0-4.267-3.459-7.726-7.726-7.726s-7.726 3.459-7.726 7.726z" fill="url(#SVGID_00000029048148852236669860000012407680337179822218_)"/></g><g><path d="m203.841 510h-171.958c-13.314 0-24.106-10.793-24.106-24.106v-331.788c-.001-13.313 10.792-24.106 24.106-24.106h171.958c13.314 0 24.106 10.793 24.106 24.106v331.787c.001 13.314-10.792 24.107-24.106 24.107z" fill="url(#SVGID_00000022551617251344356020000015100267450038740122_)"/><path d="m7.776 488.371v-2.478c0 13.314 10.793 24.107 24.107 24.107h171.958c13.314 0 24.106-10.793 24.106-24.106v2.478h-220.171z" fill="url(#SVGID_00000087383646960975976700000001406108744560933762_)"/><path d="m203.841 130h-85.979v380h85.979c13.314 0 24.106-10.793 24.106-24.106v-331.788c.001-13.313-10.792-24.106-24.106-24.106z" fill="url(#SVGID_00000055706700028926841610000002630005050347529110_)"/><path d="m143.194 150.089h-50.664c-3.073.001-5.566 2.493-5.566 5.566 0 3.075 2.492 5.566 5.567 5.567h50.664c1.537 0 2.928-.623 3.936-1.631 1.007-1.007 1.63-2.399 1.631-3.936-.002-3.074-2.493-5.566-5.568-5.566z" fill="url(#SVGID_00000116195361600513394640000017382530055511878291_)"/></g><g><path d="m207.859 160.936v318.127c0 5.991-4.857 10.848-10.848 10.848h-158.298c-5.991 0-10.848-4.857-10.848-10.848v-318.127c0-5.991 4.857-10.848 10.848-10.848h15.733c5.547 0 10.044 4.497 10.044 10.044 0 5.547 4.497 10.044 10.044 10.044h86.654c5.547 0 10.044-4.497 10.044-10.044 0-5.547 4.497-10.044 10.044-10.044h15.733c5.993.001 10.85 4.857 10.85 10.848z" fill="url(#SVGID_00000052068001344948565340000013669191473712935343_)"/><path d="m197.011 150.089h-15.733c-5.547 0-10.044 4.497-10.044 10.044s-4.497 10.044-10.044 10.044h-43.327v319.734h79.149c5.991 0 10.848-4.857 10.848-10.848v-318.127c-.001-5.991-4.858-10.847-10.849-10.847z" fill="url(#SVGID_00000080172247899120530470000006516053103836122299_)"/></g><g><g><path d="m97.546 207.237h-46.167c-4.267 0-7.726 3.459-7.726 7.726s3.459 7.726 7.726 7.726h46.167c4.267 0 7.726-3.459 7.726-7.726.001-4.267-3.459-7.726-7.726-7.726z" fill="url(#SVGID_00000126314436511673201330000016280527069632086158_)"/><path d="m136.14 207.237h-14.999c-4.267 0-7.726 3.459-7.726 7.726s3.459 7.726 7.726 7.726h14.999c4.267 0 7.726-3.459 7.726-7.726s-3.459-7.726-7.726-7.726z" fill="url(#SVGID_00000131339986490811162480000006938143659514888580_)"/><path d="m66.378 233.154h-14.999c-4.267 0-7.726 3.459-7.726 7.726s3.459 7.726 7.726 7.726h14.999c4.267 0 7.726-3.459 7.726-7.726.001-4.267-3.459-7.726-7.726-7.726z" fill="url(#SVGID_00000005956809961911973520000007770630010456019132_)"/></g><g><path d="m122.611 379h-70.474c-4.686 0-8.484 3.798-8.484 8.484s3.798 8.484 8.484 8.484h70.474c4.685 0 8.484-3.798 8.484-8.484s-3.798-8.484-8.484-8.484z" fill="url(#SVGID_00000054966096187127232930000004858447173152768418_)"/><path d="m88.563 418.166c0-4.685-3.798-8.484-8.484-8.484h-27.942c-4.686 0-8.484 3.798-8.484 8.484s3.798 8.484 8.484 8.484h27.942c4.686 0 8.484-3.798 8.484-8.484z" fill="url(#SVGID_00000096779863528657304980000010803854174449085881_)"/><path d="m189.634 418.166c0-4.685-3.798-8.484-8.484-8.484h-27.942c-4.686 0-8.484 3.798-8.484 8.484s3.798 8.484 8.484 8.484h27.942c4.685 0 8.484-3.798 8.484-8.484z" fill="url(#SVGID_00000136377602442385585630000010023199256611215288_)"/><path d="m121.208 448.484c0-4.685-3.798-8.484-8.484-8.484h-60.587c-4.686 0-8.484 3.798-8.484 8.484s3.798 8.484 8.484 8.484h60.587c4.686 0 8.484-3.798 8.484-8.484z" fill="url(#SVGID_00000042728481638412860460000001225371059100311196_)"/><path d="m122.457 426.65c4.686 0 8.484-3.798 8.484-8.484s-3.798-8.484-8.484-8.484h-16.47c-4.685 0-8.484 3.798-8.484 8.484 0 4.685 3.798 8.484 8.484 8.484z" fill="url(#SVGID_00000107589422894180631910000008621274691115724428_)"/></g><g><g><path d="m179.19 364.064h-122.656c-6.726 0-12.178-5.452-12.178-12.178v-77.026c0-6.726 5.452-12.178 12.178-12.178h122.656c6.726 0 12.178 5.452 12.178 12.178v77.026c0 6.725-5.452 12.178-12.178 12.178z" fill="url(#SVGID_00000101078908411946524100000010102385453431344002_)"/><g><path d="m140.677 364.064h38.513c6.726 0 12.178-5.452 12.178-12.178v-77.026c0-6.726-5.452-12.178-12.178-12.178h-38.513z" fill="url(#SVGID_00000067928689086357988830000004057139224764340872_)"/></g></g><path d="m60.926 306.037h27.093c4.543 0 8.226-3.683 8.226-8.226 0-4.544-3.683-8.226-8.226-8.226h-27.093c-4.543 0-8.226 3.683-8.226 8.226s3.682 8.226 8.226 8.226z" fill="#fff"/><g><circle cx="140.677" cy="293.695" fill="url(#SVGID_00000149340517097363743130000004765175898004060077_)" r="21.148"/><path d="m119.528 293.695c0 11.68 9.468 21.148 21.148 21.148s21.148-9.468 21.148-21.148c0-2.53-.446-4.955-1.26-7.203h-39.776c-.814 2.248-1.26 4.673-1.26 7.203z" fill="url(#SVGID_00000182490615522542106210000004180679934379515796_)"/><path d="m125.723 308.649c8.259 8.259 21.649 8.259 29.908 0s8.259-21.649 0-29.908c-1.789-1.789-3.819-3.188-5.984-4.202l-28.126 28.126c1.013 2.165 2.413 4.195 4.202 5.984z" fill="url(#SVGID_00000059989065738679128930000012177249604899560078_)"/></g><path d="m152.476 285.308h18.556c4.543 0 8.226-3.683 8.226-8.226 0-4.544-3.683-8.226-8.226-8.226h-18.556c-4.543 0-8.226 3.683-8.226 8.226s3.683 8.226 8.226 8.226z" fill="#fff"/><path d="m56.534 364.064h91.599l-37.01-56.075c-10.344-15.672-33.339-15.672-43.683 0l-23.085 34.978v8.919c.001 6.725 5.453 12.178 12.179 12.178z" fill="url(#SVGID_00000029019665659503022540000006537578279791133081_)"/><path d="m179.19 364.064c6.726 0 12.178-5.452 12.178-12.178v-13.682l-3.504-5.309c-10.344-15.672-33.339-15.672-43.683 0l-20.572 31.17h55.581z" fill="url(#SVGID_00000039815958469445281920000010901185164540046756_)"/><path d="m44.356 313.372v38.513c0 6.726 5.452 12.178 12.178 12.178h122.656c6.726 0 12.178-5.452 12.178-12.178v-38.513z" fill="url(#SVGID_00000027579933683205116010000005230823648887770511_)"/></g></g></g><path d="m215.129 397.398c4.25.13 7.73-3.28 7.73-7.49v-10.14c18.76 23.99 48.26 39.19 81.2 38.29 52.56-1.45 95.27-44.2 96.67-96.76.153-5.696-.192-11.286-.965-16.739l9.366 9.019c2.98 2.98 7.85 2.93 10.76-.16 2.82-2.99 2.52-7.76-.38-10.67l-21.99-21.99c-2.93-2.93-7.68-2.92-10.6 0l-22.21 22.22c-2.99 2.98-2.93 7.85.16 10.76 2.99 2.82 7.76 2.52 10.66-.38l9.021-9.021c.541 3.167.914 6.389 1.088 9.661 2.6 48.66-36.26 89.1-84.38 89.1-29.03 0-54.68-14.73-69.9-37.1h15.1c4.11 0 7.69-3.17 7.81-7.27.13-4.25-3.28-7.73-7.5-7.73h-31.41c-4.14 0-7.5 3.35-7.5 7.5v31.09c0 4.11 3.17 7.69 7.27 7.81z" fill="url(#SVGID_00000087403834223003697750000010346382336143048326_)"/></g></svg>